# xmcd
#
# Track frame offsets: 
#        150
#        11901
#        21835
#        30497
#        38920
#        51621
#        63003
#        71262
#        79986
#        88623
#        98090
#        106421
#        118132
#        127194
#        137472
#        148256
#        158615
#        169085
#        177538
#        195272
#        204940
#        215748
#        225889
#        241368
#        252045
#        273545
#
# Disc length: 3816 seconds
#
# Revision: 0
# Processed by: cddbd v1.5.2PL0 Copyright (c) Steve Scherf et al.
# Submitted via: ExactAudioCopyFreeDBPlugin 1.0
#
DISCID=6c0ee61a
DTITLE=Various Artist - Music to Scare Your Neighbors - Vintage 45s f
DTITLE=rom Lux and Ivy's Haunted Basement
DYEAR=2019
DGENRE=Halloween
TTITLE0=Round Robin - I'm the Wolfman
TTITLE1=Lee Ross - The Mummy's Bracelet
TTITLE2=Elroy Dietzel and the Rhythm Bandits - Rock-n-Bones
TTITLE3=Don Sargent and the Buddies - Voodoo Kiss
TTITLE4=Archie Bleyer - The Rockin' Ghost
TTITLE5=Bill Buchanan - Beware
TTITLE6=Eddie Thomas - Frankenstein Rock
TTITLE7=Gene La Marr and His Blue Flames - That Crazy Little House on 
TTITLE7=the Hill
TTITLE8=Herb Kliebe and Bailey's Nervous Kats - Devils Run
TTITLE9=Hugh Barrett and the Victors - Fungus Among Us
TTITLE10=Bobby Please (and the Pleasers) - The Monster
TTITLE11=Buster Doss and His Arkansas Playboys - Graveyard Boogie
TTITLE12=Jim Burgett - The Living Dead
TTITLE13=Morgus and the Three Ghouls - Morgus the Magnificent
TTITLE14=The Blue Echoes - It's Witchcraft
TTITLE15=The Kac-Ties - Mr. Were-Wolf
TTITLE16=Tony's Monstrosities - Igor's Party
TTITLE17=Bob and Jerry - Ghost Satellite
TTITLE18=Cyril Diaz and His Orchestra - Voodoo
TTITLE19=Ken Nordine - Strollin' Spooks
TTITLE20=Gary "Spider" Webb - The Cave [Part 1]
TTITLE21=Carlos Casal Jr. - Don't Meet Mr. Frankenstein
TTITLE22=Kay Martin - Swamp Girl
TTITLE23=Nervous Norvus - The Fang
TTITLE24=Tarantula Ghoul and Her Gravediggers - Graveyard Rock - King Ko
TTITLE24=ng
TTITLE25=John Zacherie - Igor
EXTD=
EXTT0=
EXTT1=
EXTT2=
EXTT3=
EXTT4=
EXTT5=
EXTT6=
EXTT7=
EXTT8=
EXTT9=
EXTT10=
EXTT11=
EXTT12=
EXTT13=
EXTT14=
EXTT15=
EXTT16=
EXTT17=
EXTT18=
EXTT19=
EXTT20=
EXTT21=
EXTT22=
EXTT23=
EXTT24=
EXTT25=
PLAYORDER=
